<svg xmlns:xlink="http://www.w3.org/1999/xlink" xmlns="http://www.w3.org/2000/svg" width="65" height="65" viewBox="0 0 65 65" fill="none">
<g clip-path="url(#clip0_106_184)">
<path d="M49.6387 31.1035C49.6387 29.0035 47.9301 27.2949 45.8301 27.2949H42.0215C39.9214 27.2949 38.2129 29.0035 38.2129 31.1035V44.4336H49.6387V31.1035Z" fill="#2c348b"/>
<path d="M7.74414 9.52148C7.74414 6.37178 10.3073 3.80859 13.457 3.80859H17.2656C19.8395 3.80859 22.0208 5.52043 22.7327 7.865C18.5151 8.84279 15.3613 12.628 15.3613 17.1387V19.043H34.4043V17.1387C34.4043 12.4836 31.0455 8.60069 26.6246 7.77969C25.8036 3.35842 21.9202 0 17.2656 0H13.457C8.20752 0 3.93555 4.2707 3.93555 9.52148V27.2949H7.74414V9.52148Z" fill="#2c348b"/>
<path d="M53.4473 48.2422H34.4043V42.5293H3.93555V48.2422C3.93555 53.2252 6.68408 57.5774 10.7443 59.8645L8.30197 62.3068L10.9949 65L14.6759 61.319C15.5139 61.4845 16.3797 61.5723 17.2656 61.5723H47.7344C48.6203 61.5723 49.4861 61.4845 50.3241 61.319L54.0051 65L56.6982 62.3069L54.2558 59.8646C58.3159 57.5774 61.0645 53.2252 61.0645 48.2422V42.5293H53.4473V48.2422Z" fill="#2c348b"/>
<path d="M61.1914 31.1035H53.4473V38.7207H61.1914C63.2912 38.7207 65 37.0119 65 34.9121C65 32.8123 63.2912 31.1035 61.1914 31.1035Z" fill="#2c348b"/>
<path d="M34.4043 31.1035H3.80859C1.70879 31.1035 0 32.8123 0 34.9121C0 37.0119 1.70879 38.7207 3.80859 38.7207H34.4043V31.1035Z" fill="#2c348b"/>
</g>
<defs>
<clipPath id="clip0_106_184">
<rect width="65" height="65" fill="white"/>
</clipPath>
</defs>
</svg>