<svg width="66" height="65" viewBox="0 0 66 65" fill="none" xmlns="http://www.w3.org/2000/svg">
<path d="M30.9688 52.8125V12.1875V6.09375H12.6875C11.5658 6.09375 10.6562 7.00334 10.6562 8.125V58.9062C10.6562 60.0279 11.5658 60.9375 12.6875 60.9375C13.8092 60.9375 14.7188 60.0279 14.7188 58.9062H30.9688V52.8125ZM26.9062 34.5312C25.7846 34.5312 24.875 33.6219 24.875 32.5C24.875 31.3781 25.7846 30.4688 26.9062 30.4688C28.0281 30.4688 28.9375 31.3781 28.9375 32.5C28.9375 33.6219 28.0281 34.5312 26.9062 34.5312ZM53.3125 6.09375H35.0312V12.1875V52.8125V58.9062H51.2812C51.2812 60.0279 52.1908 60.9375 53.3125 60.9375C54.4342 60.9375 55.3438 60.0279 55.3438 58.9062V8.125C55.3438 7.00334 54.4342 6.09375 53.3125 6.09375ZM39.0938 34.5312C37.9721 34.5312 37.0625 33.6219 37.0625 32.5C37.0625 31.3781 37.9721 30.4688 39.0938 30.4688C40.2156 30.4688 41.125 31.3781 41.125 32.5C41.125 33.6219 40.2156 34.5312 39.0938 34.5312Z" fill="#E8A922"/>
</svg>
