<svg width="66" height="65" viewBox="0 0 66 65" fill="none" xmlns="http://www.w3.org/2000/svg">
<g clip-path="url(#clip0_108_181)">
<path d="M51.3696 16.9565H34.4131V62.1739H51.3696V16.9565Z" fill="#E8A922"/>
<path d="M31.5869 16.9565H14.6304V62.1739H31.5869V16.9565Z" fill="#E8A922"/>
<path d="M64.0869 0H1.91309C1.13309 0 0.5 0.633087 0.5 1.41309V63.5869C0.5 64.3669 1.13309 65 1.91309 65H11.8044V15.5434C11.8044 14.7634 12.4375 14.1303 13.2175 14.1303H52.7827C53.5628 14.1303 54.1958 14.7634 54.1958 15.5434V64.9999H64.0869C64.8669 64.9999 65.5 64.3668 65.5 63.5868V1.41309C65.5 0.633087 64.8669 0 64.0869 0ZM28.3483 10.8918C28.0713 11.1659 27.7096 11.3044 27.3479 11.3044C26.9861 11.3044 26.6244 11.166 26.3474 10.8918L24.5218 9.06326L22.6962 10.8918C22.1451 11.4429 21.2492 11.4429 20.6981 10.8918C20.147 10.3407 20.147 9.44478 20.6981 8.89369L23.5242 6.06765C24.0752 5.51656 24.9712 5.51656 25.5222 6.06765L28.3483 8.89369C28.8994 9.44478 28.8994 10.3378 28.3483 10.8918ZM45.3048 8.0656L42.4788 10.8916C42.2018 11.1657 41.8401 11.3043 41.4783 11.3043C41.1165 11.3043 40.7549 11.1659 40.4779 10.8916L37.6518 8.0656C37.1008 7.51452 37.1008 6.6186 37.6518 6.06752C38.2029 5.51643 39.0989 5.51643 39.6499 6.06752L41.4785 7.89312L43.3041 6.06752C43.8551 5.51643 44.7511 5.51643 45.3021 6.06752C45.853 6.61874 45.8559 7.51173 45.3048 8.0656ZM58.4347 36.7391C57.6547 36.7391 57.0216 36.106 57.0216 35.326C57.0216 34.546 57.6547 33.913 58.4347 33.913C59.2147 33.913 59.8478 34.5461 59.8478 35.3261C59.8478 36.1061 59.2147 36.7391 58.4347 36.7391ZM58.4347 31.087C57.6547 31.087 57.0216 30.4539 57.0216 29.6739C57.0216 28.8939 57.6547 28.2608 58.4347 28.2608C59.2147 28.2608 59.8478 28.8939 59.8478 29.6739C59.8478 30.4539 59.2147 31.087 58.4347 31.087Z" fill="#E8A922"/>
</g>
<defs>
<clipPath id="clip0_108_181">
<rect width="65" height="65" fill="white" transform="translate(0.5)"/>
</clipPath>
</defs>
</svg>
