<svg width="65" height="65" viewBox="0 0 65 65" fill="none" xmlns="http://www.w3.org/2000/svg">
<path d="M46.0948 28.1585C45.8856 28.1585 45.671 28.1886 45.4563 28.2475L43.0302 28.9158L40.5113 22.7789C39.7974 21.0403 37.6878 19.6257 35.8085 19.6257H12.2316C10.3521 19.6257 8.24273 21.0403 7.52911 22.7789L5.01328 28.9072L2.61719 28.2472C2.40277 28.1883 2.18811 28.1583 1.97893 28.1583C0.832168 28.1583 0 29.0343 0 30.2409V31.6711C0 33.0797 1.14629 34.226 2.55494 34.226H2.82947L2.4228 35.2165C1.75974 36.8313 1.21999 39.566 1.21999 41.3124V53.504C1.21999 54.9126 2.36628 56.0589 3.77493 56.0589H7.11171C8.52036 56.0589 9.66665 54.9126 9.66665 53.504V50.4596H38.3732V53.504C38.3732 54.9126 39.5195 56.0589 40.9282 56.0589H44.2645C45.6731 56.0589 46.8194 54.9126 46.8194 53.504V41.3127C46.8194 39.5665 46.2797 36.8317 45.6166 35.2168L45.2099 34.2262H45.5186C46.9272 34.2262 48.0735 33.08 48.0735 31.6713V30.2412C48.0738 29.0346 47.2413 28.1585 46.0948 28.1585ZM6.84482 32.8386L10.6558 23.5562C11.0827 22.5163 12.3516 21.6652 13.4757 21.6652H34.5644C35.6885 21.6652 36.9574 22.516 37.3844 23.5562L41.1953 32.8386C41.622 33.8785 41.0517 34.7295 39.9276 34.7295H8.11275C6.9884 34.7293 6.41812 33.8785 6.84482 32.8386ZM15.3518 44.5798C15.3518 45.142 14.8917 45.6016 14.33 45.6016H7.09072C6.52855 45.6016 6.0687 45.1417 6.0687 44.5798V41.1056C6.0687 40.5437 6.52855 40.0839 7.09072 40.0839H14.33C14.8917 40.0839 15.3518 40.5437 15.3518 41.1056V44.5798ZM41.9027 44.5798C41.9027 45.142 41.4426 45.6016 40.881 45.6016H33.6416C33.0799 45.6016 32.6199 45.1417 32.6199 44.5798V41.1056C32.6199 40.5437 33.0799 40.0839 33.6416 40.0839H40.881C41.4426 40.0839 41.9027 40.5437 41.9027 41.1056V44.5798Z" fill="#E8A922"/>
<path d="M61.8043 8.94092H49.7034C47.9413 8.94092 46.5078 10.3746 46.5078 12.1365V24.2376C46.5078 25.9998 47.9415 27.4335 49.7034 27.4335H54.5612V54.5933C54.5612 55.2521 55.095 55.7859 55.7537 55.7859C56.4125 55.7859 56.9463 55.2521 56.9463 54.5933V27.4337H61.8043C63.5664 27.4337 64.9999 26 64.9999 24.2379V12.1367C64.9999 10.3746 63.5664 8.94092 61.8043 8.94092ZM59.0636 18.9744C58.3676 19.601 57.3425 19.9187 56.0168 19.9187H54.2645C54.0541 19.9187 53.8828 20.0902 53.8828 20.3005V23.2555C53.8828 23.5765 53.6217 23.8374 53.3006 23.8374H51.9736C51.6523 23.8374 51.3913 23.5763 51.3913 23.2555V13.1199C51.3913 12.7986 51.6525 12.5374 51.9736 12.5374H55.3165C57.5311 12.5374 58.3578 12.8711 59.0371 13.4476C59.7536 14.0556 60.1166 14.9867 60.1166 16.2158C60.1163 17.4167 59.7624 18.3445 59.0636 18.9744Z" fill="#E8A922"/>
<path d="M57.1666 14.9845C56.8432 14.7402 56.271 14.6162 55.4663 14.6162H54.2644C54.0541 14.6162 53.8828 14.7875 53.8828 14.9976V17.4261C53.8828 17.6362 54.0541 17.8075 54.2644 17.8075H54.9845C55.249 17.8075 55.6764 17.7879 55.9371 17.7639C56.1902 17.7407 56.9045 17.6372 57.1666 17.4392C57.4812 17.2012 57.6408 16.7895 57.6408 16.2159C57.6408 15.6368 57.4812 15.2225 57.1666 14.9845Z" fill="#E8A922"/>
</svg>
