<svg width="66" height="65" viewBox="0 0 66 65" fill="none" xmlns="http://www.w3.org/2000/svg">
<path d="M57.375 54.8438H56.6979V42.6562H57.375C58.4963 42.6562 59.4062 41.7463 59.4062 40.625C59.4062 39.5037 58.4963 38.5938 57.375 38.5938H8.625C7.50375 38.5938 6.59375 39.5037 6.59375 40.625C6.59375 41.7463 7.50375 42.6562 8.625 42.6562H9.30208V54.8438H8.625C7.50375 54.8438 6.59375 55.7537 6.59375 56.875C6.59375 57.9963 7.50375 58.9062 8.625 58.9062H57.375C58.4963 58.9062 59.4062 57.9963 59.4062 56.875C59.4062 55.7537 58.4963 54.8438 57.375 54.8438ZM20.1354 54.8438H13.3646V42.6562H20.1354V54.8438ZM30.9688 54.8438H24.1979V42.6562H30.9688V54.8438ZM41.8021 54.8438H35.0312V42.6562H41.8021V54.8438ZM52.6354 54.8438H45.8646V42.6562H52.6354V54.8438ZM51.2812 34.5312H14.7188V13.5417C14.7188 9.425 18.05 6.09375 22.1667 6.09375H43.8333C47.95 6.09375 51.2812 9.425 51.2812 13.5417V34.5312Z" fill="#E8A922"/>
</svg>
