<svg xmlns:xlink="http://www.w3.org/1999/xlink" xmlns="http://www.w3.org/2000/svg" width="66" height="65" viewBox="0 0 66 65" fill="none">
<path d="M14.7188 52.8125H12.6875V11.1719C12.6875 9.48594 11.3266 8.125 9.64062 8.125C7.95469 8.125 6.59375 9.48594 6.59375 11.1719V52.8125H4.5625C3.44531 52.8125 2.53125 53.7266 2.53125 54.8438C2.53125 55.9609 3.44531 56.875 4.5625 56.875H14.7188C15.8359 56.875 16.75 55.9609 16.75 54.8438C16.75 53.7266 15.8359 52.8125 14.7188 52.8125Z" fill="#2c348b"/>
<path d="M61.4375 52.8125H59.4062V11.1719C59.4062 9.48594 58.0453 8.125 56.3594 8.125C54.6734 8.125 53.3125 9.48594 53.3125 11.1719V52.8125H51.2812C50.1641 52.8125 49.25 53.7266 49.25 54.8438C49.25 55.9609 50.1641 56.875 51.2812 56.875H61.4375C62.5547 56.875 63.4688 55.9609 63.4688 54.8438C63.4688 53.7266 62.5547 52.8125 61.4375 52.8125Z" fill="#2c348b"/>
<path d="M16.75 44.6875H30.9688V16.25H16.75V44.6875ZM22.8438 28.4375C22.8438 27.3203 23.7578 26.4062 24.875 26.4062C25.9922 26.4062 26.9062 27.3203 26.9062 28.4375V32.5C26.9062 33.6172 25.9922 34.5312 24.875 34.5312C23.7578 34.5312 22.8438 33.6172 22.8438 32.5V28.4375Z" fill="#2c348b"/>
<path d="M49.25 16.25H35.0312V44.6875H49.25V16.25ZM43.1562 32.5C43.1562 33.6172 42.2422 34.5312 41.125 34.5312C40.0078 34.5312 39.0938 33.6172 39.0938 32.5V28.4375C39.0938 27.3203 40.0078 26.4062 41.125 26.4062C42.2422 26.4062 43.1562 27.3203 43.1562 28.4375V32.5Z" fill="#2c348b"/>
</svg>