<svg width="80" height="80" viewBox="0 0 80 80" fill="none" xmlns="http://www.w3.org/2000/svg">
<circle cx="40" cy="40" r="40" fill="#EE8029"/>
<g clip-path="url(#clip0_192_671)">
<path d="M36.2812 30.6562V32.0625C36.2812 33.1814 36.7257 34.2544 37.5169 35.0456C38.3081 35.8368 39.3811 36.2812 40.5 36.2812C41.6189 36.2812 42.6919 35.8368 43.4831 35.0456C44.2743 34.2544 44.7188 33.1814 44.7188 32.0625V30.6562C44.7188 29.5374 44.2743 28.4643 43.4831 27.6731C42.6919 26.882 41.6189 26.4375 40.5 26.4375C39.3811 26.4375 38.3081 26.882 37.5169 27.6731C36.7257 28.4643 36.2812 29.5374 36.2812 30.6562Z" fill="white"/>
<path d="M41.2031 24.3281V18.7031C41.2031 18.5166 41.129 18.3378 40.9972 18.2059C40.8653 18.0741 40.6865 18 40.5 18C40.3135 18 40.1347 18.0741 40.0028 18.2059C39.871 18.3378 39.7969 18.5166 39.7969 18.7031V24.3281C39.7969 24.5146 39.871 24.6934 40.0028 24.8253C40.1347 24.9572 40.3135 25.0312 40.5 25.0312C40.6865 25.0312 40.8653 24.9572 40.9972 24.8253C41.129 24.6934 41.2031 24.5146 41.2031 24.3281Z" fill="white"/>
<path d="M27.8438 28.5469C27.8438 28.7334 27.9178 28.9122 28.0497 29.0441C28.1816 29.1759 28.3604 29.25 28.5469 29.25H34.1719C34.3584 29.25 34.5372 29.1759 34.6691 29.0441C34.8009 28.9122 34.875 28.7334 34.875 28.5469C34.875 28.3604 34.8009 28.1816 34.6691 28.0497C34.5372 27.9178 34.3584 27.8438 34.1719 27.8438H28.5469C28.3604 27.8438 28.1816 27.9178 28.0497 28.0497C27.9178 28.1816 27.8438 28.3604 27.8438 28.5469Z" fill="white"/>
<path d="M53.1562 28.5469C53.1562 28.3604 53.0822 28.1816 52.9503 28.0497C52.8184 27.9178 52.6396 27.8438 52.4531 27.8438H46.8281C46.6416 27.8438 46.4628 27.9178 46.3309 28.0497C46.1991 28.1816 46.125 28.3604 46.125 28.5469C46.125 28.7334 46.1991 28.9122 46.3309 29.0441C46.4628 29.1759 46.6416 29.25 46.8281 29.25H52.4531C52.6396 29.25 52.8184 29.1759 52.9503 29.0441C53.0822 28.9122 53.1562 28.7334 53.1562 28.5469Z" fill="white"/>
<path d="M47.7371 21.0184L43.5184 25.2371C43.4512 25.302 43.3976 25.3796 43.3608 25.4653C43.3239 25.5511 43.3045 25.6434 43.3037 25.7368C43.3029 25.8301 43.3207 25.9227 43.3561 26.0091C43.3914 26.0955 43.4436 26.174 43.5097 26.2401C43.5757 26.3061 43.6542 26.3583 43.7406 26.3936C43.827 26.429 43.9196 26.4468 44.0129 26.446C44.1063 26.4452 44.1986 26.4258 44.2844 26.3889C44.3701 26.3521 44.4477 26.2985 44.5126 26.2313L48.7313 22.0126C48.7985 21.9477 48.8521 21.8701 48.8889 21.7844C48.9258 21.6986 48.9452 21.6063 48.946 21.5129C48.9468 21.4196 48.929 21.327 48.8936 21.2406C48.8583 21.1542 48.8061 21.0757 48.74 21.0097C48.674 20.9436 48.5955 20.8914 48.5091 20.8561C48.4227 20.8207 48.3301 20.8029 48.2368 20.8037C48.1434 20.8045 48.0511 20.8239 47.9653 20.8608C47.8796 20.8976 47.802 20.9512 47.7371 21.0184Z" fill="white"/>
<path d="M33.2629 21.0187C33.1303 20.8906 32.9527 20.8197 32.7683 20.8213C32.5839 20.8229 32.4076 20.8969 32.2772 21.0272C32.1469 21.1576 32.0729 21.3339 32.0713 21.5183C32.0697 21.7027 32.1406 21.8803 32.2687 22.0129L36.4874 26.2316C36.62 26.3597 36.7976 26.4306 36.982 26.429C37.1664 26.4274 37.3427 26.3534 37.4731 26.2231C37.6034 26.0927 37.6774 25.9164 37.679 25.732C37.6806 25.5476 37.6097 25.37 37.4816 25.2374L33.2629 21.0187Z" fill="white"/>
<path d="M46.3309 31.5652C46.199 31.6971 46.125 31.8759 46.125 32.0623C46.125 32.2488 46.199 32.4276 46.3309 32.5595L50.5496 36.7782C50.6822 36.9063 50.8598 36.9772 51.0442 36.9756C51.2286 36.974 51.4049 36.9 51.5353 36.7696C51.6656 36.6393 51.7396 36.4629 51.7412 36.2786C51.7428 36.0942 51.6719 35.9166 51.5438 35.784L47.3251 31.5652C47.1932 31.4334 47.0144 31.3594 46.828 31.3594C46.6415 31.3594 46.4627 31.4334 46.3309 31.5652Z" fill="white"/>
<path d="M33.6746 31.5655L29.4559 35.7843C29.3887 35.8492 29.3351 35.9267 29.2983 36.0125C29.2614 36.0983 29.242 36.1906 29.2412 36.2839C29.2404 36.3773 29.2582 36.4699 29.2936 36.5563C29.3289 36.6427 29.3811 36.7212 29.4472 36.7872C29.5132 36.8532 29.5917 36.9055 29.6781 36.9408C29.7645 36.9762 29.8571 36.9939 29.9504 36.9931C30.0438 36.9923 30.1361 36.9729 30.2219 36.9361C30.3076 36.8992 30.3852 36.8457 30.4501 36.7785L34.6688 32.5598C34.7969 32.4271 34.8678 32.2495 34.8662 32.0652C34.8646 31.8808 34.7906 31.7045 34.6603 31.5741C34.5299 31.4437 34.3536 31.3698 34.1692 31.3682C33.9848 31.3666 33.8072 31.4375 33.6746 31.5655Z" fill="white"/>
<path d="M25.0313 58.0782V60.8907C25.0298 61.021 25.0654 61.1489 25.1338 61.2597C25.2023 61.3705 25.3009 61.4596 25.418 61.5165L28.2305 62.9228C28.3285 62.9729 28.4369 62.9994 28.5469 63.0001H34.875V61.9243C34.8772 61.2217 35.0892 60.5358 35.4838 59.9545C35.8784 59.3732 36.4377 58.9231 37.0899 58.6618L30.136 54.7524L25.3829 57.4665C25.2756 57.5285 25.1865 57.6177 25.1248 57.7251C25.0631 57.8325 25.0308 57.9543 25.0313 58.0782Z" fill="white"/>
<path d="M55.6172 57.4665L50.8711 54.7524L45.7453 57.6353L48.1641 57.3821C48.2603 57.3626 48.3596 57.3634 48.4556 57.3846C48.5515 57.4058 48.6419 57.4468 48.721 57.5051C48.8001 57.5633 48.8661 57.6375 48.9148 57.7229C48.9634 57.8082 48.9937 57.9028 49.0035 58.0005C49.0134 58.0983 49.0027 58.197 48.9721 58.2903C48.9415 58.3837 48.8916 58.4696 48.8258 58.5425C48.7599 58.6154 48.6796 58.6737 48.5898 58.7136C48.5 58.7535 48.4029 58.7742 48.3047 58.7743L38.0602 59.836C37.5646 59.9177 37.114 60.1722 36.7884 60.5545C36.4627 60.9368 36.2831 61.4221 36.2812 61.9243V63.0001H52.4531C52.5632 62.9994 52.6716 62.9729 52.7695 62.9228L55.582 61.5165C55.6409 61.4897 55.6955 61.4541 55.7437 61.411L55.7648 61.3899C55.8497 61.2975 55.9122 61.1869 55.9477 61.0665C55.9616 61.0089 55.9687 60.9499 55.9688 60.8907V58.0782C55.9692 57.9543 55.937 57.8325 55.8753 57.7251C55.8135 57.6177 55.7245 57.5285 55.6172 57.4665Z" fill="white"/>
<path d="M27.499 51.6586L38.749 57.9867C38.883 58.0612 39.0375 58.0905 39.1895 58.0702C39.3415 58.0499 39.4829 57.9812 39.5927 57.8742L39.6982 57.7688C40.1389 57.3261 40.4208 56.7501 40.4998 56.1305C40.5787 56.7501 40.8606 57.3261 41.3013 57.7688L41.4068 57.8742C41.5405 58.0043 41.7195 58.0774 41.906 58.0781C42.027 58.0795 42.1461 58.0479 42.2505 57.9867L53.5005 51.6586C53.656 51.5717 53.7725 51.4287 53.826 51.2588C53.8796 51.0889 53.8663 50.9049 53.7888 50.7445L48.2974 39.3047C48.2834 39.2695 48.2623 39.2414 48.2482 39.2133C47.926 38.7424 47.4937 38.3573 46.9889 38.0914C46.484 37.8255 45.9219 37.6868 45.3513 37.6875H35.6482C35.0776 37.6868 34.5155 37.8255 34.0107 38.0914C33.5058 38.3573 33.0735 38.7424 32.7513 39.2133C32.7373 39.2414 32.7162 39.2695 32.7021 39.3047L27.2107 50.7445C27.1332 50.9049 27.1199 51.0889 27.1735 51.2588C27.2271 51.4287 27.3435 51.5717 27.499 51.6586ZM34.8748 46.7297V49.6406L40.4998 52.4531L46.1248 49.6406V46.7297L47.974 50.0625L41.9623 53.3039C41.5734 53.5087 41.2387 53.8029 40.9857 54.1623C40.7326 54.5217 40.5685 54.9359 40.5068 55.3711C40.5068 55.3922 40.4998 55.4203 40.4998 55.4484C40.4998 55.4203 40.4927 55.3922 40.4927 55.3711C40.431 54.9359 40.2669 54.5217 40.0138 54.1623C39.7608 53.8029 39.4261 53.5087 39.0373 53.3039L33.0255 50.0625L34.8748 46.7297Z" fill="white"/>
</g>
<defs>
<clipPath id="clip0_192_671">
<rect width="45" height="45" fill="white" transform="translate(18 18)"/>
</clipPath>
</defs>
</svg>
