<svg width="80" height="80" viewBox="0 0 80 80" fill="none" xmlns="http://www.w3.org/2000/svg">
<circle cx="40" cy="40" r="39.5" fill="#66B83A" stroke="#66B83A"/>
<path d="M39.5012 23.187C37.3157 23.187 35.5376 21.4089 35.5376 19.2234C35.5376 17.0378 37.3157 15.2598 39.5012 15.2598C41.6867 15.2598 43.4648 17.0378 43.4648 19.2234C43.4648 21.4089 41.6867 23.187 39.5012 23.187Z" fill="white"/>
<path d="M58.0304 55.2918C57.3583 55.2918 56.6779 55.1211 56.0553 54.7616C54.1625 53.6688 53.5117 51.2399 54.6045 49.3472C55.6972 47.4544 58.126 46.8038 60.0189 47.8963C61.9115 48.9892 62.5623 51.418 61.4696 53.3108C60.7364 54.5808 59.4012 55.2918 58.0304 55.2918Z" fill="white"/>
<path d="M42.7038 57.7402L41.9334 49.7937L42.8959 49.4439C43.6333 49.1759 44.3367 48.8123 44.9826 48.3686L41.1807 46.1736L45.1443 39.3085L48.9462 41.5034C49.0075 40.7223 48.9706 39.9313 48.8341 39.1588L48.6559 38.1504L55.923 34.8442L56.324 36.3553C57.4981 40.7789 56.8874 45.3928 54.6045 49.347C52.3216 53.3011 48.6312 56.137 44.2131 57.332L42.7038 57.7402Z" fill="white"/>
<path d="M20.9719 55.2918C19.6011 55.2918 18.266 54.581 17.5328 53.3108C17.0034 52.394 16.8627 51.3258 17.1368 50.3032C17.4108 49.2806 18.0666 48.4259 18.9834 47.8964C20.8762 46.8037 23.3051 47.4545 24.3979 49.3472C25.4907 51.24 24.8399 53.6688 22.9471 54.7616C22.3245 55.121 21.6439 55.2918 20.9719 55.2918Z" fill="white"/>
<path d="M36.2982 57.7402L34.789 57.332C30.3709 56.137 26.6805 53.3011 24.3976 49.347C22.1146 45.3928 21.504 40.779 22.6781 36.3553L23.0791 34.8442L30.3462 38.1502L30.1679 39.1588C30.0314 39.9313 29.9944 40.7223 30.0558 41.5035L33.8577 39.3085L37.8213 46.1736L34.0194 48.3686C34.6652 48.8123 35.3687 49.1759 36.1061 49.4439L37.0688 49.7938L36.2982 57.7402Z" fill="white"/>
<path d="M43.4252 36.399H35.498V32.0154C34.8166 32.347 34.1696 32.7691 33.5631 33.2784L32.7788 33.937L26.2822 29.2966L27.3904 28.1937C30.6343 24.9651 34.9354 23.187 39.5013 23.187C44.0672 23.187 48.3682 24.9651 51.6122 28.1937L52.7203 29.2966L46.2237 33.937L45.4395 33.2784C44.8356 32.7714 44.1553 32.3406 43.4253 31.9997V36.399H43.4252Z" fill="white"/>
</svg>
