<svg width="80" height="80" viewBox="0 0 80 80" fill="none" xmlns="http://www.w3.org/2000/svg">
<circle cx="40" cy="40" r="39.5" fill="#295DAA" stroke="#295DAA"/>
<path d="M39.4004 41.584L34.3081 36.4918C34.0668 36.2504 34.0668 35.8591 34.3081 35.6177C34.5495 35.3763 34.9409 35.3763 35.1822 35.6177L40.2925 40.7279C39.9696 34.1975 34.5554 28.9839 27.9463 28.9839V29.2558C27.9463 35.7668 33.0063 41.1178 39.4004 41.584Z" fill="white"/>
<path d="M47.8619 34.9998C48.1033 34.7584 48.4947 34.7584 48.736 34.9998C48.9774 35.2412 48.9774 35.6325 48.736 35.8739L42.9923 41.6177H43.9724C50.7886 41.6177 56.334 36.0723 56.334 29.256V27.0928H54.4798C47.6636 27.0928 42.1182 32.6382 42.1182 39.4544V40.7436L47.8619 34.9998Z" fill="white"/>
<path d="M54.2987 40.3328L48.74 45.8915C48.3689 46.9073 47.4458 47.672 46.2842 47.9132L38.8917 50.0694C38.558 50.1668 38.2081 49.9697 38.1203 49.6306C38.0354 49.3031 38.2457 48.9701 38.5706 48.8754L45.9626 46.7194C45.9808 46.7149 45.9993 46.7104 46.0175 46.706C46.9595 46.5165 47.4593 45.8887 47.6128 45.364C47.74 44.9294 47.6561 44.5159 47.3882 44.2577C46.9306 43.8167 45.9829 43.792 44.788 44.1899C44.7608 44.199 44.7326 44.2064 44.7044 44.2117L39.7597 45.1388C39.5592 45.1764 39.353 45.1127 39.2087 44.9684C35.5585 41.3182 31.1462 41.5435 27.1031 45.5865C26.9872 45.7024 26.83 45.7675 26.6661 45.7675H24.0394C23.7833 45.7675 23.5757 45.9751 23.5757 46.2312V52.1027C23.5757 52.3588 23.7833 52.5664 24.0394 52.5664H27.9023C27.9517 52.5664 28.0014 52.5725 28.0494 52.5842C37.5651 54.9069 43.9509 54.5502 47.571 51.4932L56.5151 42.5491C56.905 42.1592 57.0641 41.6 56.9239 41.0375C56.8924 40.911 56.8429 40.789 56.7776 40.6761C56.2347 39.7377 55.0084 39.6232 54.2987 40.3328Z" fill="white"/>
</svg>
