<svg xmlns:xlink="http://www.w3.org/1999/xlink" xmlns="http://www.w3.org/2000/svg" width="80" height="80" viewBox="0 0 80 80" fill="none">
<circle cx="40" cy="40" r="40" fill="#7C4495"/>
<path d="M55.6588 27.4684C54.6488 26.9797 53.4324 27.3924 52.9328 28.4025L50.261 33.8654L47.1549 30.0424C46.753 29.5428 46.1666 29.3148 45.5692 29.3148V29.2822H39.2157V29.3256C38.8356 29.3147 38.4446 29.3691 38.0971 29.5754L31.3091 33.6482C30.7009 34.0174 30.3208 34.6799 30.3208 35.3967V41.5113C30.3208 42.6408 31.2331 43.5423 32.3517 43.5423C33.4813 43.5423 34.3827 42.63 34.3827 41.5113V36.5588L38.4555 34.1152V41.5113C38.4555 42.0543 38.6727 42.5648 39.0528 42.9558L46.601 50.504V59.8442C46.601 60.9737 47.5133 61.8751 48.6319 61.8751C49.7614 61.8751 50.6629 60.9628 50.6629 59.8442V49.6568C50.6629 49.1138 50.4457 48.6033 50.0655 48.2124L46.3295 44.4763C46.4815 44.1939 46.5901 43.8789 46.5901 43.5423V35.8312L49.0772 38.8939C49.4682 39.3718 50.0547 39.6433 50.6629 39.6433C50.7389 39.6433 50.8149 39.6433 50.891 39.6324C51.586 39.5564 52.1834 39.1328 52.4875 38.5029L56.5602 30.1727C57.0816 29.1736 56.6688 27.9572 55.6588 27.4684Z" fill="white"/>
<path d="M43.0937 28.1835C45.5951 28.1835 47.623 26.1557 47.623 23.6542C47.623 21.1528 45.5951 19.125 43.0937 19.125C40.5923 19.125 38.5645 21.1528 38.5645 23.6542C38.5645 26.1557 40.5923 28.1835 43.0937 28.1835Z" fill="white"/>
<path d="M35.1537 50.7317L25.8135 52.7844C24.7166 53.0233 24.0215 54.1094 24.2604 55.2063C24.4668 56.1621 25.3139 56.8029 26.2479 56.8029C26.3891 56.8029 26.5411 56.792 26.6823 56.7594L36.8588 54.5221C37.391 54.4026 37.858 54.0768 38.1512 53.6098L41.4746 48.2446L38.5205 45.2905L35.1537 50.7317Z" fill="white"/>
</svg>