<svg width="80" height="80" viewBox="0 0 80 80" fill="none" xmlns="http://www.w3.org/2000/svg">
<circle cx="40" cy="40" r="39.5" fill="#11B49E" stroke="#11B49E"/>
<path d="M31.8938 51.686C32.0664 49.1993 33.1359 46.8597 34.9036 45.1021L36.0592 43.9464C35.4395 43.1512 35.046 42.2034 34.9205 41.2031H33.2886C30.9129 41.2058 28.6354 42.1507 26.9555 43.8305C25.2757 45.5104 24.3308 47.7879 24.3281 50.1636V51.75H30.8364C31.1898 51.7493 31.5429 51.7279 31.8938 51.686Z" fill="white"/>
<path d="M27.8922 31.8156C27.8613 31.4923 27.8438 31.166 27.8438 30.8364V29.25H24.3281V30.8364C24.3284 31.4273 24.3867 32.0168 24.5023 32.5963C25.5797 32.1451 26.7261 31.8811 27.8922 31.8156Z" fill="white"/>
<path d="M26.5684 42.2769C28.3665 40.738 30.6388 39.8639 33.0047 39.8011C31.7885 39.0893 30.729 38.1387 29.8901 37.0064C29.0512 35.8741 28.4502 34.5837 28.1235 33.2129C25.8833 33.3005 23.7596 34.2339 22.1803 35.8251L21.1035 36.9018L25.7786 41.5768C26.0281 41.8253 26.2918 42.059 26.5684 42.2769Z" fill="white"/>
<path d="M39.7969 46.0796C38.7965 45.9541 37.8487 45.5607 37.0535 44.9409L35.8979 46.0966C34.2175 47.777 33.2734 50.0561 33.2734 52.4326C33.2734 54.809 34.2175 57.0882 35.8979 58.7686C35.9001 58.7707 35.9022 58.7729 35.9043 58.775L36.9922 59.8912L41.6232 55.2869C41.8733 55.0357 42.1084 54.7701 42.3274 54.4915C40.6934 52.6109 39.7946 50.2029 39.7969 47.7116V46.0796Z" fill="white"/>
<path d="M30.8364 53.1562H29.25V56.6718H30.8364C31.4574 56.6716 32.0768 56.6072 32.6845 56.4795C32.2305 55.4068 31.9616 54.265 31.8891 53.1025C31.5393 53.138 31.188 53.1559 30.8364 53.1562Z" fill="white"/>
<path d="M54.4314 38.7231C52.6334 40.262 50.361 41.1361 47.9951 41.1989C49.2113 41.9107 50.2708 42.8614 51.1097 43.9936C51.9486 45.1259 52.5496 46.4163 52.8763 47.7871C55.1164 47.6992 57.24 46.7658 58.8195 45.1749L59.8963 44.0982L55.2217 39.4232C54.9721 39.1747 54.7082 38.941 54.4314 38.7231Z" fill="white"/>
<path d="M45.9748 41.7866C45.7105 42.9026 45.1122 43.9115 44.2596 44.6785C43.407 45.4456 42.3407 45.9343 41.2031 46.0796V47.7115C41.2058 50.0871 42.1507 52.3647 43.8305 54.0445C45.5104 55.7244 47.7879 56.6693 50.1636 56.672H51.75V50.1637C51.7455 48.3475 51.1915 46.5753 50.1606 45.0801C49.1298 43.5849 47.6706 42.4367 45.9748 41.7866Z" fill="white"/>
<path d="M53.1079 49.1837C53.1388 49.5072 53.1563 49.8341 53.1563 50.1634V51.7501H56.672V50.1636C56.6717 49.5727 56.6134 48.9833 56.4979 48.4038C55.4204 48.8547 54.274 49.1184 53.1079 49.1837Z" fill="white"/>
<path d="M50.1635 27.8438H51.7499V24.3281H50.1635C49.5425 24.3283 48.9232 24.3927 48.3154 24.5204C48.7694 25.5931 49.0383 26.7349 49.1108 27.8974C49.4606 27.8619 49.8119 27.844 50.1635 27.8438Z" fill="white"/>
<path d="M41.2031 34.9205C42.2034 35.046 43.1513 35.4394 43.9465 36.0592L45.1021 34.9035C46.78 33.2218 47.7224 30.9431 47.7224 28.5675C47.7224 26.1919 46.78 23.9132 45.1021 22.2315C45.0999 22.2294 45.0978 22.2272 45.0957 22.2251L44.0078 21.1089L39.3768 25.7132C39.1264 25.964 38.8911 26.2293 38.6719 26.5077C40.3063 28.3884 41.2054 30.7968 41.2031 33.2885V34.9205Z" fill="white"/>
<path d="M40.5 44.7188C42.83 44.7188 44.7188 42.83 44.7188 40.5C44.7188 38.17 42.83 36.2812 40.5 36.2812C38.17 36.2812 36.2812 38.17 36.2812 40.5C36.2812 42.83 38.17 44.7188 40.5 44.7188Z" fill="white"/>
<path d="M49.1064 29.3139C48.9338 31.8007 47.8642 34.1402 46.0966 35.8979L44.9409 37.0536C45.5607 37.8488 45.9541 38.7966 46.0796 39.7969H47.7116C50.0872 39.7942 52.3648 38.8493 54.0446 37.1695C55.7245 35.4896 56.6694 33.2121 56.672 30.8364V29.25H50.1637C49.8103 29.2507 49.4573 29.2721 49.1064 29.3139Z" fill="white"/>
<path d="M35.0252 39.2135C35.2895 38.0975 35.8878 37.0886 36.7404 36.3216C37.593 35.5545 38.6593 35.0658 39.7969 34.9205V33.2886C39.7942 30.9129 38.8493 28.6354 37.1695 26.9555C35.4896 25.2757 33.2121 24.3308 30.8364 24.3281H29.25V30.8364C29.2544 32.6525 29.8085 34.4248 30.8393 35.92C31.8701 37.4152 33.3294 38.5634 35.0252 39.2135Z" fill="white"/>
</svg>
