<svg xmlns:xlink="http://www.w3.org/1999/xlink" xmlns="http://www.w3.org/2000/svg" width="80" height="80" viewBox="0 0 80 80" fill="none">
<circle cx="40" cy="40" r="39.5" fill="#EF5A52" stroke="#EF5A52"/>
<path fill-rule="evenodd" clip-rule="evenodd" d="M58.034 43.8676C57.3736 39.9666 54.2443 38.9363 54.2443 36.1643C55.0612 26.296 50.1243 18.791 38.7688 18.791C21.887 18.791 17.9669 40.0361 29.7474 48.4634C30.1679 55.1716 27.3821 59.9309 27.0415 62.209H46.2796C46.2796 58.2155 43.0653 55.2497 45.6954 54.0985C47.2801 53.4048 52.447 56.0854 53.7181 54.5033C54.6452 50.5346 55.5297 51.2073 55.5297 49.7689C53.5463 48.258 53.6598 48.0555 55.655 47.4112L55.6733 44.3131L58.034 43.8676ZM42.7494 34.4045C44.2596 32.8943 46.7357 32.8891 48.2512 34.4045C49.7643 35.9176 49.7643 38.3934 48.2512 39.9064C46.1864 41.9712 44.122 44.0358 42.0571 46.1007C39.9924 44.0359 37.9277 41.9712 35.863 39.9065C34.35 38.3934 34.35 35.9176 35.863 34.4047C37.3761 32.8916 39.8517 32.8916 41.3648 34.4046L42.0571 35.0968L42.7494 34.4045ZM48.0909 32.4336C48.737 32.4336 49.3347 32.226 49.8208 31.8738C50.0519 32.5892 50.0582 33.3922 49.84 34.1187C49.0121 32.9352 47.7604 32.1669 46.3808 31.937C45.9335 31.1339 45.0821 30.6103 44.1252 30.6103C43.7369 30.6103 43.4221 30.9251 43.4221 31.3134C43.4221 31.7017 43.7369 32.0165 44.1252 32.0165C44.1563 32.0165 44.1871 32.0178 44.2176 32.0201C43.4396 32.2125 42.6973 32.5825 42.0571 33.1305C39.9806 31.3529 36.8327 31.4461 34.8686 33.4101C32.9429 35.3359 32.816 38.3999 34.4875 40.4759C32.9384 40.9958 31.2842 41.2023 31.0078 43.4757H30.0032C30.0552 42.1858 30.2844 40.8277 30.9304 39.6791C31.1697 39.2536 30.9125 38.7021 30.4125 38.6365C29.4256 38.5069 28.8765 37.4279 29.328 36.5524C31.5678 37.1526 33.7844 35.4665 33.7844 33.1343C33.7844 32.746 33.4696 32.4312 33.0813 32.4312C32.693 32.4312 32.3782 32.746 32.3782 33.1343C32.3782 34.3121 31.4237 35.2665 30.2461 35.2665C28.4687 35.2665 27.4866 33.2184 28.5537 31.8337C28.8319 31.4728 29.2212 31.2036 29.669 31.0787C30.0946 30.9885 30.3408 30.528 30.1725 30.1227C29.9637 29.6198 30.2047 29.0287 30.7202 28.8219C31.2522 29.7981 32.2805 30.4364 33.4369 30.4364C33.8252 30.4364 34.14 30.1216 34.14 29.7333C34.14 29.345 33.8252 29.0302 33.4368 29.0302C32.5059 29.0302 31.7514 28.2757 31.7514 27.3447C31.7514 26.0683 33.1085 25.2745 34.2116 25.8455C34.5826 26.0363 35.0435 25.8569 35.1894 25.4665C35.8637 23.6618 38.25 23.2378 39.5052 24.7035C38.5916 25.6369 38.0283 26.9147 38.0283 28.324C38.0283 28.7123 38.3432 29.0271 38.7315 29.0271C39.1198 29.0271 39.4346 28.7123 39.4346 28.324C39.4346 26.2417 41.1223 24.5538 43.2047 24.5538C45.6745 24.5538 47.4562 26.8799 46.8615 29.2499C46.7675 29.6261 46.9962 30.0074 47.3723 30.1013C47.7485 30.1954 48.1298 29.9667 48.2237 29.5905C48.3584 29.0537 48.4066 28.5121 48.3683 27.9602C48.684 28.0174 48.9663 28.1704 49.1839 28.3881C50.155 29.3592 49.4642 31.0271 48.0907 31.0271C47.7024 31.0271 47.3875 31.342 47.3875 31.7303C47.3878 32.1188 47.7026 32.4336 48.0909 32.4336ZM51.0431 29.4814C51.0431 29.8886 50.9606 30.2767 50.8114 30.6296C51.668 32.2644 51.5916 34.23 50.6133 35.7851C51.0825 37.5529 50.6267 39.5195 49.2455 40.9007L42.0571 48.0894L35.547 41.5792C34.02 42.2212 32.374 42.1123 32.374 44.1789C32.374 44.5672 32.0591 44.8821 31.6708 44.8821H29.2866C28.8982 44.8821 28.5834 44.5672 28.5834 44.1789C28.5834 42.6987 28.7453 41.171 29.3397 39.7538C27.9331 39.053 27.353 37.3351 28.0714 35.9257C25.9992 34.3088 26.3568 31.093 28.7015 29.9531C28.6007 28.828 29.3003 27.8024 30.3473 27.4618C30.2712 25.4181 32.1641 23.8516 34.1801 24.3454C35.5758 21.9994 38.8655 21.7414 40.6116 23.8431C43.3912 22.2311 46.9529 23.5306 48.0614 26.5293C49.7171 26.521 51.0431 27.8439 51.0431 29.4814Z" fill="white"/>
</svg>