<svg xmlns:xlink="http://www.w3.org/1999/xlink" xmlns="http://www.w3.org/2000/svg" width="66" height="65" viewBox="0 0 66 65" fill="none">
<path d="M55.3438 29.2881C54.0632 28.726 52.6797 28.4363 51.2812 28.4375H14.7188C13.3204 28.4362 11.937 28.7254 10.6562 29.2868C8.84616 30.0784 7.30588 31.3802 6.22367 33.033C5.14147 34.6858 4.56423 36.6181 4.5625 38.5938V52.8125C4.5625 53.3512 4.77651 53.8679 5.15744 54.2488C5.53837 54.6297 6.05503 54.8438 6.59375 54.8438C7.13247 54.8438 7.64913 54.6297 8.03006 54.2488C8.41099 53.8679 8.625 53.3512 8.625 52.8125V51.7969C8.62829 51.5285 8.73635 51.2721 8.92611 51.0824C9.11587 50.8926 9.37229 50.7845 9.64062 50.7813H56.3594C56.6277 50.7845 56.8841 50.8926 57.0739 51.0824C57.2636 51.2721 57.3717 51.5285 57.375 51.7969V52.8125C57.375 53.3512 57.589 53.8679 57.9699 54.2488C58.3509 54.6297 58.8675 54.8438 59.4062 54.8438C59.945 54.8438 60.4616 54.6297 60.8426 54.2488C61.2235 53.8679 61.4375 53.3512 61.4375 52.8125V38.5938C61.4355 36.6184 60.8582 34.6863 59.776 33.0337C58.6938 31.3811 57.1536 30.0796 55.3438 29.2881Z" fill="#2c348b"/>
<path d="M48.2344 10.1562H17.7656C15.8801 10.1562 14.0718 10.9053 12.7385 12.2385C11.4053 13.5718 10.6563 15.3801 10.6562 17.2656V26.4062C10.6563 26.4849 10.6747 26.5625 10.7098 26.6329C10.745 26.7033 10.7961 26.7646 10.859 26.8118C10.9219 26.8591 10.9949 26.8911 11.0723 26.9053C11.1497 26.9196 11.2294 26.9156 11.305 26.8937C12.4139 26.5694 13.5634 26.4053 14.7188 26.4062H15.2558C15.3811 26.407 15.5023 26.3615 15.5961 26.2783C15.6898 26.1951 15.7495 26.0801 15.7636 25.9556C15.8744 24.963 16.3469 24.0461 17.0909 23.3799C17.8349 22.7136 18.7982 22.3448 19.7969 22.3438H26.9062C27.9056 22.3438 28.8699 22.7123 29.6147 23.3786C30.3594 24.0449 30.8325 24.9624 30.9434 25.9556C30.9575 26.0801 31.0171 26.1951 31.1109 26.2783C31.2046 26.3615 31.3258 26.407 31.4512 26.4062H34.5564C34.6818 26.407 34.803 26.3615 34.8967 26.2783C34.9905 26.1951 35.0502 26.0801 35.0643 25.9556C35.175 24.9637 35.6469 24.0473 36.3901 23.3811C37.1333 22.715 38.0957 22.3457 39.0938 22.3438H46.2031C47.2025 22.3438 48.1667 22.7123 48.9115 23.3786C49.6563 24.0449 50.1294 24.9624 50.2402 25.9556C50.2543 26.0801 50.314 26.1951 50.4077 26.2783C50.5015 26.3615 50.6227 26.407 50.748 26.4062H51.2812C52.4366 26.4057 53.5862 26.5703 54.695 26.895C54.7707 26.9169 54.8505 26.9208 54.928 26.9066C55.0055 26.8923 55.0786 26.8602 55.1415 26.8127C55.2045 26.7653 55.2555 26.7039 55.2906 26.6334C55.3257 26.5628 55.3439 26.4851 55.3438 26.4062V17.2656C55.3438 15.3801 54.5947 13.5718 53.2615 12.2385C51.9282 10.9053 50.1199 10.1562 48.2344 10.1562Z" fill="#2c348b"/>
</svg>