<svg xmlns:xlink="http://www.w3.org/1999/xlink" xmlns="http://www.w3.org/2000/svg" width="66" height="65" viewBox="0 0 66 65" fill="none">
<g clip-path="url(#clip0_108_208)">
<path d="M27.9219 20.2119V27.5224L33.2387 23.8671L27.9219 20.2119Z" fill="#2c348b"/>
<path d="M3.54688 41.6406H39.2055L38.8043 39.4113C37.7917 38.5233 37.1703 37.2715 37.0753 35.928C36.9802 34.5845 37.419 33.2578 38.2965 32.2359C38.2863 32.1141 38.2812 31.9922 38.2812 31.8703C38.28 31.0254 38.4813 30.1926 38.8683 29.4416C39.2553 28.6905 39.8167 28.0432 40.5055 27.5539C40.698 26.5319 41.1906 25.5905 41.9205 24.8497C42.6504 24.109 43.5845 23.6025 44.6035 23.3949C45.0996 22.753 45.7359 22.2331 46.4638 21.8748C47.1917 21.5166 47.9919 21.3296 48.8031 21.3281C49.4111 21.3278 50.0144 21.4344 50.5855 21.643C51.7107 21.2506 52.9344 21.2434 54.0641 21.6227C54.619 21.4285 55.2027 21.3289 55.7906 21.3281C56.5041 21.3289 57.21 21.4737 57.8662 21.7538C58.5224 22.0339 59.1153 22.4436 59.6094 22.9582C59.7465 23.1004 59.8785 23.2426 60.0004 23.3949C60.5036 23.494 60.9883 23.6705 61.4375 23.918V9.14062C61.4369 8.33274 61.1156 7.55813 60.5444 6.98687C59.9731 6.4156 59.1985 6.09439 58.3906 6.09375H3.54688C2.73899 6.09439 1.96438 6.4156 1.39312 6.98687C0.821855 7.55813 0.50064 8.33274 0.5 9.14062L0.5 38.5938C0.50064 39.4016 0.821855 40.1762 1.39312 40.7475C1.96438 41.3188 2.73899 41.64 3.54688 41.6406ZM25.8906 18.2812C25.8907 18.0964 25.9412 17.915 26.0368 17.7568C26.1323 17.5985 26.2692 17.4693 26.4327 17.3831C26.5963 17.2969 26.7802 17.2569 26.9648 17.2676C27.1493 17.2782 27.3275 17.339 27.4801 17.4434L35.6051 23.0293C35.7413 23.1225 35.8527 23.2476 35.9297 23.3936C36.0066 23.5396 36.0469 23.7021 36.0469 23.8672C36.0469 24.0322 36.0066 24.1948 35.9297 24.3408C35.8527 24.4868 35.7413 24.6118 35.6051 24.7051L27.4801 30.291C27.3271 30.3938 27.1493 30.4537 26.9654 30.4644C26.7814 30.4751 26.5979 30.4363 26.434 30.352C26.2702 30.2657 26.1331 30.1364 26.0374 29.9781C25.9416 29.8197 25.8909 29.6382 25.8906 29.4531V18.2812Z" fill="#2c348b"/>
<path d="M19.7967 49.2578V46.7188C19.8195 45.9356 19.5311 45.1753 18.9947 44.6042C18.4582 44.0332 17.7174 43.6979 16.9343 43.6719H10.4715C9.68847 43.6979 8.94761 44.0332 8.41115 44.6042C7.87469 45.1753 7.58632 45.9356 7.60917 46.7188V49.2578C7.60918 49.5272 7.71619 49.7855 7.90666 49.976C8.09712 50.1664 8.35544 50.2734 8.6248 50.2734H18.781C19.0504 50.2734 19.3087 50.1664 19.4992 49.976C19.6897 49.7855 19.7967 49.5272 19.7967 49.2578Z" fill="#2c348b"/>
<path d="M32.9998 50.2734C33.2692 50.2734 33.5275 50.1664 33.7179 49.976C33.9084 49.7855 34.0154 49.5272 34.0154 49.2578V46.7188C34.0383 45.9356 33.7499 45.1753 33.2134 44.6042C32.677 44.0332 31.9361 43.6979 31.153 43.6719H24.6903C23.9072 43.6979 23.1664 44.0332 22.6299 44.6042C22.0934 45.1753 21.8051 45.9356 21.8279 46.7188V49.2578C21.8279 49.5272 21.9349 49.7855 22.1254 49.976C22.3159 50.1664 22.5742 50.2734 22.8435 50.2734H32.9998Z" fill="#2c348b"/>
<path d="M1.51542 58.9062H11.6717C11.941 58.9062 12.1993 58.7992 12.3898 58.6088C12.5803 58.4183 12.6873 58.16 12.6873 57.8906V55.3516C12.7101 54.5684 12.4218 53.8081 11.8853 53.237C11.3488 52.666 10.608 52.3307 9.8249 52.3047H3.36216C2.57909 52.3307 1.83824 52.666 1.30178 53.237C0.765318 53.8081 0.476949 54.5684 0.499796 55.3516V57.8906C0.49981 58.16 0.606817 58.4183 0.797281 58.6088C0.987745 58.7992 1.24606 58.9062 1.51542 58.9062Z" fill="#2c348b"/>
<path d="M15.7342 58.9062H25.8904C26.1598 58.9062 26.4181 58.7992 26.6086 58.6088C26.799 58.4183 26.906 58.16 26.906 57.8906V55.3516C26.9289 54.5684 26.6405 53.8081 26.104 53.237C25.5676 52.666 24.8267 52.3307 24.0436 52.3047H17.5809C16.7978 52.3307 16.057 52.666 15.5205 53.237C14.9841 53.8081 14.6957 54.5684 14.7185 55.3516V57.8906C14.7186 58.16 14.8256 58.4183 15.016 58.6088C15.2065 58.7992 15.4648 58.9062 15.7342 58.9062Z" fill="#2c348b"/>
<path d="M41.1248 57.8906V55.3516C41.1476 54.5684 40.8593 53.8081 40.3228 53.237C39.7863 52.666 39.0455 52.3307 38.2624 52.3047H31.7997C31.0166 52.3307 30.2757 52.666 29.7393 53.237C29.2028 53.8081 28.9144 54.5684 28.9373 55.3516V57.8906C28.9373 58.16 29.0443 58.4183 29.2348 58.6088C29.4252 58.7992 29.6836 58.9062 29.9529 58.9062H40.1092C40.3785 58.9062 40.6368 58.7992 40.8273 58.6088C41.0178 58.4183 41.1248 58.16 41.1248 57.8906Z" fill="#2c348b"/>
<path d="M51.7123 29.4562C51.6615 29.3328 51.5869 29.2207 51.4927 29.1262C51.3984 29.0317 51.2865 28.9568 51.1633 28.9056C51.0401 28.8544 50.908 28.828 50.7746 28.828C50.6412 28.8279 50.5091 28.8541 50.3858 28.9052C50.1988 28.966 49.996 28.9565 49.8155 28.8784C49.7947 28.8693 49.7744 28.8588 49.755 28.8469C49.7303 28.5934 49.6112 28.3584 49.4214 28.1885C49.2316 28.0187 48.9849 27.9263 48.7302 27.9298C48.4755 27.9332 48.2314 28.0323 48.0463 28.2072C47.8611 28.3822 47.7485 28.6203 47.7307 28.8744C47.7197 29.2769 47.835 29.6727 48.0606 30.0062C48.2862 30.3397 48.6107 30.5941 48.9883 30.7336C49.3532 30.895 49.7478 30.9783 50.1468 30.978C50.4945 30.9797 50.8392 30.9133 51.1614 30.7827C51.4104 30.6798 51.6082 30.4823 51.7116 30.2335C51.8149 29.9847 51.8152 29.7051 51.7123 29.4562Z" fill="#2c348b"/>
<path d="M49.0537 32.2621C48.3824 32.189 47.7067 32.3533 47.1439 32.7265C46.9233 32.8811 46.7731 33.117 46.7263 33.3822C46.6796 33.6475 46.7402 33.9205 46.8947 34.1412C47.0493 34.3618 47.2851 34.512 47.5504 34.5587C47.8157 34.6054 48.0887 34.5449 48.3093 34.3903C48.4706 34.3009 48.6555 34.2631 48.8389 34.282C48.8563 34.284 48.8712 34.2859 48.8846 34.2882C48.9928 34.4699 49.1548 34.6134 49.3483 34.6988C49.5418 34.7841 49.7571 34.8071 49.9642 34.7645C50.1713 34.7218 50.36 34.6157 50.5041 34.4609C50.6482 34.3061 50.7404 34.1103 50.7681 33.9006C50.7824 33.7684 50.7725 33.6347 50.7388 33.5061C50.6187 33.1514 50.3928 32.842 50.0915 32.6196C49.7902 32.3972 49.428 32.2724 49.0537 32.2621Z" fill="#2c348b"/>
<path d="M54.0041 34.649C54.0806 34.7582 54.1779 34.8513 54.2904 34.923C54.4028 34.9947 54.5283 35.0435 54.6597 35.0666C54.791 35.0897 54.9256 35.0868 55.0558 35.0579C55.186 35.029 55.3093 34.9747 55.4185 34.8982C55.5799 34.809 55.7646 34.7712 55.9481 34.7898C55.9655 34.7918 55.9804 34.7938 55.9937 34.796C56.1191 35.007 56.3165 35.1654 56.5496 35.2421C56.7827 35.3188 57.0356 35.3085 57.2617 35.2131C57.4878 35.1177 57.6717 34.9438 57.7794 34.7233C57.8872 34.5029 57.9115 34.2509 57.8479 34.0139C57.7278 33.6592 57.5019 33.3499 57.2007 33.1274C56.8994 32.905 56.5372 32.7803 56.1628 32.77C55.4915 32.6968 54.8158 32.8611 54.2531 33.2344C54.0325 33.389 53.8824 33.6249 53.8357 33.8901C53.789 34.1554 53.8496 34.4284 54.0041 34.649Z" fill="#2c348b"/>
<path d="M54.9486 30.6138C55.4417 30.9956 56.0431 31.2114 56.6664 31.2302C56.8032 31.2306 56.9396 31.217 57.0736 31.1898C57.2043 31.1634 57.3285 31.1115 57.4392 31.037C57.5499 30.9626 57.6448 30.8671 57.7185 30.756C57.7923 30.6449 57.8435 30.5204 57.8691 30.3895C57.8947 30.2586 57.8943 30.124 57.8679 29.9933C57.8415 29.8625 57.7896 29.7383 57.7152 29.6276C57.6407 29.517 57.5452 29.4221 57.4341 29.3483C57.323 29.2746 57.1985 29.2234 57.0676 29.1978C56.9367 29.1722 56.8021 29.1726 56.6714 29.199C56.484 29.178 56.3066 29.1033 56.1606 28.984C56.0381 28.8949 55.9332 28.784 55.8511 28.6567C55.8421 28.3936 55.7312 28.1443 55.542 27.9613C55.3527 27.7783 55.0998 27.6759 54.8365 27.6758C54.8251 27.6758 54.8132 27.676 54.8013 27.6763C54.5321 27.6856 54.2776 27.8014 54.0938 27.9983C53.9099 28.1951 53.8118 28.4569 53.8209 28.7261C53.8586 29.1043 53.9792 29.4695 54.1741 29.7958C54.369 30.1221 54.6334 30.4013 54.9486 30.6138Z" fill="#2c348b"/>
<path d="M64.0926 32.9922C64.0965 32.981 64.1025 32.9708 64.1065 32.9597C64.1344 32.8775 64.1517 32.7921 64.158 32.7056C64.3795 31.9219 64.2942 31.0834 63.9194 30.3604C63.5447 29.6375 62.9087 29.0844 62.1407 28.8136C62.1476 28.7288 62.1511 28.6439 62.1511 28.5588C62.1614 27.7144 61.8364 26.9004 61.2473 26.2953C60.6583 25.6903 59.8533 25.3435 59.009 25.3311C58.9416 25.3311 58.8741 25.3333 58.8072 25.338C58.5507 24.7512 58.129 24.2517 57.5935 23.9003C57.0581 23.549 56.4319 23.361 55.7915 23.3594C55.1833 23.3607 54.5878 23.5333 54.0732 23.8573C53.5458 23.5351 52.9385 23.3677 52.3206 23.3742C51.7027 23.3807 51.099 23.5608 50.5785 23.8939C50.0516 23.5458 49.4342 23.3599 48.8026 23.3594C48.1622 23.3609 47.536 23.5488 47.0005 23.9002C46.465 24.2515 46.0434 24.7511 45.787 25.3381C45.7201 25.3333 45.6527 25.3311 45.5852 25.3311C44.7409 25.3435 43.9359 25.6903 43.3469 26.2954C42.7579 26.9004 42.4328 27.7144 42.4431 28.5588C42.4431 28.6439 42.4466 28.7287 42.4535 28.8134C41.8241 29.039 41.2802 29.4544 40.8971 30.0024C40.514 30.5504 40.3105 31.2038 40.3147 31.8724C40.3147 32.2522 40.381 32.629 40.5105 32.986C40.064 33.2704 39.6989 33.6657 39.4508 34.1334C39.2027 34.601 39.0801 35.1251 39.095 35.6542C39.1099 36.1834 39.2617 36.6997 39.5357 37.1527C39.8097 37.6057 40.1965 37.9798 40.6583 38.2387L44.0494 57.1061C44.145 57.6032 44.4077 58.0527 44.7938 58.3801C45.1799 58.7075 45.6663 58.8932 46.1724 58.9062H51.2812V36.5625H42.0414C41.7885 36.5517 41.5501 36.4412 41.3784 36.2552C41.2066 36.0691 41.1156 35.8227 41.125 35.5697C41.1187 35.3412 41.1933 35.1179 41.3357 34.9392C41.478 34.7604 41.679 34.6377 41.903 34.5927C42.2222 34.7594 42.5691 34.8666 42.9267 34.9089C43.3684 34.9595 43.8159 34.9091 44.2353 34.7613C44.4889 34.671 44.6961 34.4837 44.8117 34.2406C44.9272 33.9976 44.9415 33.7186 44.8515 33.465C44.7615 33.2113 44.5745 33.0038 44.3316 32.888C44.0887 32.7721 43.8097 32.7574 43.5559 32.8471C43.4282 32.8917 43.292 32.9067 43.1577 32.8907C42.9204 32.8515 42.7061 32.7256 42.5561 32.5376C42.4062 32.3495 42.3313 32.1125 42.3459 31.8724C42.3355 31.5664 42.4467 31.2688 42.6551 31.0445C42.8635 30.8202 43.1523 30.6875 43.4582 30.6755C43.6758 30.7087 43.8978 30.6993 44.1118 30.648C44.2517 30.5976 44.3787 30.5171 44.484 30.4122C44.5894 30.3074 44.6704 30.1807 44.7214 30.0411C44.7725 29.9015 44.7922 29.7524 44.7794 29.6043C44.7665 29.4562 44.7213 29.3128 44.6469 29.1841C44.5349 28.9947 44.4753 28.7788 44.4744 28.5587C44.4621 28.3665 44.5 28.1743 44.5844 28.0011C44.6688 27.828 44.7967 27.6797 44.9557 27.5709C45.1148 27.4622 45.2993 27.3966 45.4913 27.3807C45.6833 27.3649 45.8762 27.3992 46.0509 27.4804C46.1991 27.5544 46.3632 27.5911 46.5289 27.5872C46.6945 27.5832 46.8567 27.5388 47.0013 27.4577C47.1458 27.3767 47.2683 27.2615 47.3581 27.1222C47.4478 26.9829 47.5022 26.8238 47.5163 26.6587C47.5318 26.3242 47.6728 26.0079 47.9113 25.7729C48.1497 25.5378 48.468 25.4013 48.8026 25.3906C48.9932 25.3937 49.1806 25.44 49.3506 25.526C49.5207 25.612 49.6691 25.7354 49.7845 25.887C49.8832 26.0007 50.0052 26.0919 50.1422 26.1544C50.2791 26.2169 50.4279 26.2493 50.5785 26.2493C50.7291 26.2493 50.8779 26.2169 51.0149 26.1544C51.1518 26.0919 51.2738 26.0007 51.3725 25.887C51.4834 25.7366 51.6273 25.6136 51.7933 25.5276C51.9592 25.4416 52.1426 25.3948 52.3294 25.3909C52.5163 25.387 52.7015 25.4259 52.8709 25.5049C53.0403 25.5838 53.1894 25.7005 53.3065 25.8461C53.402 25.9563 53.5201 26.0446 53.6528 26.105C53.7855 26.1655 53.9296 26.1967 54.0754 26.1965C54.2212 26.1963 54.3652 26.1647 54.4977 26.1039C54.6302 26.0431 54.7481 25.9545 54.8433 25.8441C54.9588 25.7041 55.1035 25.5909 55.2673 25.5126C55.4311 25.4342 55.61 25.3926 55.7915 25.3906C56.1262 25.4013 56.4446 25.5378 56.6832 25.7729C56.9217 26.008 57.0628 26.3244 57.0784 26.6589C57.0926 26.824 57.147 26.9832 57.2368 27.1225C57.3266 27.2617 57.4492 27.3769 57.5938 27.4579C57.7384 27.5389 57.9006 27.5833 58.0663 27.5871C58.232 27.591 58.3961 27.5543 58.5443 27.4801C58.719 27.3993 58.9117 27.3653 59.1035 27.3814C59.2954 27.3975 59.4797 27.4631 59.6385 27.5718C59.7974 27.6805 59.9252 27.8287 60.0096 28.0017C60.094 28.1747 60.132 28.3666 60.1199 28.5588C60.119 28.7788 60.0596 28.9946 59.9478 29.1841C59.855 29.3509 59.8113 29.5404 59.8217 29.731C59.832 29.9215 59.896 30.1052 60.0063 30.2609C60.1179 30.4192 60.2714 30.5433 60.4496 30.6192C60.6277 30.6951 60.8235 30.72 61.015 30.6909C61.0548 30.6832 61.095 30.6781 61.1355 30.6755C61.4414 30.6876 61.73 30.8202 61.9384 31.0445C62.1467 31.2688 62.2578 31.5665 62.2473 31.8724C62.2586 31.9962 62.2436 32.1209 62.2032 32.2384C62.1629 32.3559 62.0981 32.4635 62.0132 32.5542C61.9282 32.6449 61.8251 32.7166 61.7105 32.7646C61.5959 32.8125 61.4724 32.8357 61.3482 32.8325C61.2294 32.8297 61.1122 32.8054 61.0021 32.7609C60.8805 32.7055 60.7493 32.6746 60.6158 32.6701C60.4823 32.6655 60.3493 32.6873 60.2242 32.7342C60.0992 32.7811 59.9846 32.8523 59.8871 32.9435C59.7896 33.0348 59.711 33.1444 59.6559 33.266C59.6008 33.3877 59.5703 33.519 59.566 33.6525C59.5617 33.786 59.5838 33.919 59.631 34.0439C59.6782 34.1689 59.7495 34.2833 59.841 34.3806C59.9324 34.4779 60.0422 34.5562 60.164 34.6111C60.5384 34.7803 60.9447 34.8676 61.3557 34.867C61.7934 34.8677 62.2257 34.7702 62.6207 34.5816C62.8624 34.6183 63.0822 34.7426 63.2384 34.9307C63.3946 35.1188 63.4763 35.3577 63.4679 35.602C63.4596 35.8464 63.3619 36.0792 63.1933 36.2562C63.0247 36.4333 62.7969 36.5423 62.5533 36.5625H53.3125V58.9062H58.4213C58.9273 58.8931 59.4136 58.7077 59.7998 58.3806C60.186 58.0535 60.449 57.6044 60.5453 57.1076L63.9354 38.2389C64.3964 37.9805 64.7826 37.6072 65.0566 37.1553C65.3305 36.7034 65.4828 36.1882 65.4986 35.66C65.5144 35.1318 65.3933 34.6085 65.1469 34.141C64.9005 33.6734 64.5373 33.2777 64.0926 32.9922ZM48.7422 49.7656C48.7422 49.9665 48.6826 50.1629 48.571 50.3299C48.4594 50.4969 48.3008 50.6271 48.1152 50.7039C47.9296 50.7808 47.7254 50.8009 47.5284 50.7617C47.3314 50.7225 47.1504 50.6258 47.0084 50.4838C46.8664 50.3417 46.7696 50.1608 46.7304 49.9638C46.6913 49.7668 46.7114 49.5625 46.7882 49.377C46.8651 49.1914 46.9953 49.0328 47.1623 48.9212C47.3293 48.8096 47.5257 48.75 47.7266 48.75C47.9959 48.75 48.2542 48.857 48.4447 49.0475C48.6352 49.2379 48.7422 49.4963 48.7422 49.7656ZM47.2187 42.6562C47.4196 42.6562 47.616 42.7158 47.783 42.8274C47.95 42.939 48.0802 43.0976 48.1571 43.2832C48.2339 43.4688 48.254 43.673 48.2148 43.87C48.1757 44.067 48.0789 44.248 47.9369 44.39C47.7949 44.5321 47.6139 44.6288 47.4169 44.668C47.2199 44.7072 47.0157 44.6871 46.8301 44.6102C46.6445 44.5333 46.4859 44.4031 46.3743 44.2361C46.2627 44.0691 46.2031 43.8727 46.2031 43.6719C46.2031 43.4025 46.3101 43.1442 46.5006 42.9537C46.6911 42.7633 46.9494 42.6563 47.2187 42.6562ZM56.8672 50.7812C56.6663 50.7812 56.4699 50.7217 56.3029 50.6101C56.1359 50.4985 56.0057 50.3399 55.9289 50.1543C55.852 49.9687 55.8319 49.7645 55.8711 49.5675C55.9103 49.3705 56.007 49.1895 56.149 49.0475C56.2911 48.9054 56.472 48.8087 56.669 48.7695C56.866 48.7303 57.0703 48.7504 57.2558 48.8273C57.4414 48.9042 57.6 49.0344 57.7116 49.2014C57.8232 49.3684 57.8828 49.5648 57.8828 49.7656C57.8828 50.035 57.7758 50.2933 57.5853 50.4838C57.3949 50.6742 57.1365 50.7812 56.8672 50.7812ZM57.1211 44.6875C56.9202 44.6875 56.7239 44.6279 56.5568 44.5163C56.3898 44.4047 56.2596 44.2461 56.1828 44.0605C56.1059 43.875 56.0858 43.6707 56.125 43.4737C56.1642 43.2767 56.2609 43.0958 56.4029 42.9537C56.545 42.8117 56.7259 42.715 56.9229 42.6758C57.12 42.6366 57.3242 42.6567 57.5097 42.7336C57.6953 42.8104 57.8539 42.9406 57.9655 43.1076C58.0771 43.2746 58.1367 43.471 58.1367 43.6719C58.1367 43.9412 58.0297 44.1996 57.8392 44.39C57.6488 44.5805 57.3904 44.6875 57.1211 44.6875Z" fill="#2c348b"/>
</g>
<defs>
<clipPath id="clip0_108_208">
<rect width="65" height="65" fill="white" transform="translate(0.5)"/>
</clipPath>
</defs>
</svg>