<svg width="47" height="47" viewBox="0 0 47 47" fill="none" xmlns="http://www.w3.org/2000/svg">
<g opacity="0.5">
<path fill-rule="evenodd" clip-rule="evenodd" d="M10.3353 18.0863C5.81559 18.9619 2.3999 22.944 2.3999 27.7171C2.3999 33.1315 6.79479 37.5264 12.2092 37.5264C17.6236 37.5264 22.0185 33.1315 22.0185 27.7171C22.0185 20.5017 19.5878 16.0204 16.7346 13.2191C12.3666 8.92986 6.89655 8.55738 6.89655 8.55738C6.33975 8.51706 5.81175 8.80314 5.53911 9.2889C5.26455 9.77274 5.29719 10.3737 5.61975 10.8268C5.61975 10.8268 8.21943 14.4863 9.83991 17.1935C10.0089 17.4777 10.1797 17.7907 10.3353 18.0863Z" fill="black"/>
<path fill-rule="evenodd" clip-rule="evenodd" d="M31.9969 18.0863C27.4772 18.9619 24.0615 22.944 24.0615 27.7171C24.0615 33.1315 28.4564 37.5264 33.8708 37.5264C39.2852 37.5264 43.6801 33.1315 43.6801 27.7171C43.6801 20.5017 41.2494 16.0204 38.3963 13.2191C34.0283 8.92986 28.5582 8.55738 28.5582 8.55738C28.0014 8.51706 27.4734 8.80314 27.2007 9.2889C26.9281 9.77274 26.9588 10.3737 27.2814 10.8268C27.2814 10.8268 29.881 14.4863 31.5015 17.1935C31.6705 17.4777 31.8414 17.7907 31.9969 18.0863Z" fill="black"/>
</g>
</svg>
