<svg width="47" height="47" viewBox="0 0 47 47" fill="none" xmlns="http://www.w3.org/2000/svg">
<g opacity="0.5">
<path fill-rule="evenodd" clip-rule="evenodd" d="M35.7448 18.0863C40.2645 18.9619 43.6802 22.944 43.6802 27.7171C43.6802 33.1315 39.2853 37.5264 33.8709 37.5264C28.4565 37.5264 24.0616 33.1315 24.0616 27.7171C24.0616 20.5017 26.4923 16.0204 29.3454 13.2191C33.7134 8.92986 39.1835 8.55738 39.1835 8.55738C39.7403 8.51706 40.2683 8.80314 40.541 9.2889C40.8155 9.77274 40.7829 10.3737 40.4603 10.8268C40.4603 10.8268 37.8607 14.4863 36.2402 17.1935C36.0712 17.4777 35.9003 17.7907 35.7448 18.0863Z" fill="black"/>
<path fill-rule="evenodd" clip-rule="evenodd" d="M14.0832 18.0863C18.6029 18.9619 22.0186 22.944 22.0186 27.7171C22.0186 33.1315 17.6237 37.5264 12.2093 37.5264C6.79486 37.5264 2.39997 33.1315 2.39997 27.7171C2.39997 20.5017 4.8307 16.0204 7.68382 13.2191C12.0518 8.92986 17.5219 8.55738 17.5219 8.55738C18.0787 8.51706 18.6067 8.80314 18.8794 9.2889C19.152 9.77274 19.1213 10.3737 18.7987 10.8268C18.7987 10.8268 16.199 14.4863 14.5785 17.1935C14.4096 17.4777 14.2387 17.7907 14.0832 18.0863Z" fill="black"/>
</g>
</svg>
