<svg width="24" height="24" viewBox="0 0 24 24" fill="none" xmlns="http://www.w3.org/2000/svg">
<path d="M5.27992 1.91992C3.42984 1.91992 1.91992 3.42984 1.91992 5.27992V18.7199C1.91992 20.57 3.42984 22.0799 5.27992 22.0799H18.7199C20.57 22.0799 22.0799 20.57 22.0799 18.7199V5.27992C22.0799 3.42984 20.57 1.91992 18.7199 1.91992H5.27992ZM5.27992 2.87992H18.7199C20.0513 2.87992 21.1199 3.94856 21.1199 5.27992V18.7199C21.1199 20.0513 20.0513 21.1199 18.7199 21.1199H5.27992C3.94856 21.1199 2.87992 20.0513 2.87992 18.7199V5.27992C2.87992 3.94856 3.94856 2.87992 5.27992 2.87992ZM6.28117 6.23992L10.708 12.5296L6.23993 17.7599H7.43993L11.2499 13.2993L14.3887 17.7599H18.1987L13.3387 10.8543L17.2799 6.23992H16.0799L12.7968 10.0846L10.0912 6.23992H6.28117ZM8.11867 7.19992H9.58961L16.3612 16.7999H14.8902L8.11867 7.19992Z" fill="white"/>
</svg>
